<svg width="16" height="16" viewBox="0 0 16 16" fill="none" xmlns="http://www.w3.org/2000/svg">
<path d="M13.0996 6.02667L9.87289 5.74667L8.61289 2.78C8.38623 2.24 7.61289 2.24 7.38623 2.78L6.12623 5.75333L2.90623 6.02667C2.31956 6.07333 2.07956 6.80667 2.52623 7.19333L4.97289 9.31333L4.23956 12.46C4.10623 13.0333 4.72623 13.4867 5.23289 13.18L7.99956 11.5133L10.7662 13.1867C11.2729 13.4933 11.8929 13.04 11.7596 12.4667L11.0262 9.31333L13.4729 7.19333C13.9196 6.80667 13.6862 6.07333 13.0996 6.02667V6.02667ZM7.99956 10.2667V4.06667L9.13956 6.76L12.0596 7.01333L9.84623 8.93333L10.5129 11.7867L7.99956 10.2667Z" fill="#2948FF"/>
</svg>
